<svg width="54" height="55" viewBox="0 0 54 55" fill="none" xmlns="http://www.w3.org/2000/svg">
<g clip-path="url(#clip0_570_10720)">
<path d="M53.9777 27.3683C53.9777 12.4622 41.894 0.378487 26.9879 0.378487C12.0818 0.378487 -0.00195312 12.4622 -0.00195312 27.3683C-0.00195312 40.8397 9.86784 52.0055 22.7707 54.0303V35.1701H15.9178V27.3683H22.7707V21.4221C22.7707 14.6578 26.8001 10.9214 32.9652 10.9214C35.9181 10.9214 39.0068 11.4485 39.0068 11.4485V18.0906H35.6034C32.2506 18.0906 31.205 20.171 31.205 22.3055V27.3683H38.6905L37.4939 35.1701H31.205V54.0303C44.1079 52.0055 53.9777 40.8397 53.9777 27.3683Z" fill="#1877F2"/>
<path d="M37.494 35.1697L38.6906 27.368H31.2052V22.3051C31.2052 20.1707 32.2508 18.0902 35.6036 18.0902H39.0069V11.4482C39.0069 11.4482 35.9182 10.921 32.9653 10.921C26.8003 10.921 22.7709 14.6574 22.7709 21.4218V27.368H15.918V35.1697H22.7709V54.0299C24.145 54.2455 25.5533 54.3578 26.988 54.3578C28.4227 54.3578 29.8311 54.2455 31.2052 54.0299V35.1697H37.494Z" fill="white"/>
</g>
<defs>
<clipPath id="clip0_570_10720">
<rect width="53.9797" height="53.9797" fill="white" transform="translate(0 0.37854)"/>
</clipPath>
</defs>
</svg>
