<svg width="59" height="58" viewBox="0 0 59 58" fill="none" xmlns="http://www.w3.org/2000/svg">
<g filter="url(#filter0_b_3468_10398)">
<path fill-rule="evenodd" clip-rule="evenodd" d="M0.8125 28.875C0.8125 12.9278 13.7403 0 29.6875 0C45.6347 0 58.5625 12.9278 58.5625 28.875C58.5625 44.8222 45.6347 57.75 29.6875 57.75C13.7403 57.75 0.8125 44.8222 0.8125 28.875Z" fill="#D4D4D4" fill-opacity="0.1"/>
<path d="M1.375 28.875C1.375 13.2384 14.0509 0.5625 29.6875 0.5625C45.3241 0.5625 58 13.2384 58 28.875C58 44.5116 45.3241 57.1875 29.6875 57.1875C14.0509 57.1875 1.375 44.5116 1.375 28.875Z" stroke="url(#paint0_linear_3468_10398)" stroke-opacity="0.5" stroke-width="1.125" stroke-linecap="round"/>
</g>
<g filter="url(#filter1_b_3468_10398)">
<path fill-rule="evenodd" clip-rule="evenodd" d="M29.6905 13.4747C25.5081 13.4747 24.9832 13.493 23.3405 13.5678C21.701 13.6428 20.582 13.9024 19.6028 14.2832C18.5899 14.6766 17.7307 15.2028 16.8747 16.0591C16.0181 16.9151 15.4919 17.7743 15.0973 18.7868C14.7155 19.7663 14.4556 20.8857 14.3818 22.5246C14.3083 24.1673 14.2891 24.6925 14.2891 28.8749C14.2891 33.0573 14.3077 33.5806 14.3821 35.2233C14.4575 36.8628 14.7171 37.9818 15.0976 38.961C15.4912 39.9739 16.0174 40.8331 16.8737 41.6891C17.7294 42.5457 18.5886 43.0732 19.6008 43.4665C20.5807 43.8474 21.7001 44.1069 23.3392 44.182C24.9819 44.2568 25.5065 44.2751 29.6886 44.2751C33.8713 44.2751 34.3946 44.2568 36.0373 44.182C37.6768 44.1069 38.7971 43.8474 39.777 43.4665C40.7895 43.0732 41.6474 42.5457 42.5031 41.6891C43.3598 40.8331 43.8859 39.9739 44.2806 38.9614C44.6591 37.9818 44.919 36.8624 44.996 35.2236C45.0698 33.5809 45.0891 33.0573 45.0891 28.8749C45.0891 24.6925 45.0698 24.1676 44.996 22.5249C44.919 20.8854 44.6591 19.7663 44.2806 18.7871C43.8859 17.7743 43.3598 16.9151 42.5031 16.0591C41.6465 15.2024 40.7899 14.6763 39.776 14.2832C38.7943 13.9024 37.6745 13.6428 36.0351 13.5678C34.3924 13.493 33.8694 13.4747 29.6857 13.4747H29.6905ZM28.3089 16.2499C28.7189 16.2493 29.1765 16.2499 29.6904 16.2499C33.8023 16.2499 34.2896 16.2647 35.9134 16.3385C37.4149 16.4071 38.2298 16.658 38.7727 16.8688C39.4914 17.1479 40.0037 17.4816 40.5424 18.0206C41.0814 18.5596 41.4151 19.073 41.6949 19.7916C41.9057 20.3339 42.1569 21.1488 42.2252 22.6503C42.299 24.2737 42.315 24.7614 42.315 28.8713C42.315 32.9812 42.299 33.4689 42.2252 35.0923C42.1565 36.5939 41.9057 37.4088 41.6949 37.951C41.4157 38.6697 41.0814 39.1814 40.5424 39.7201C40.0034 40.2591 39.4917 40.5928 38.7727 40.8719C38.2305 41.0836 37.4149 41.3339 35.9134 41.4026C34.29 41.4764 33.8023 41.4924 29.6904 41.4924C25.5783 41.4924 25.0909 41.4764 23.4675 41.4026C21.966 41.3333 21.1511 41.0824 20.6079 40.8716C19.8892 40.5924 19.3759 40.2588 18.8369 39.7198C18.2979 39.1808 17.9642 38.6687 17.6844 37.9497C17.4736 37.4075 17.2224 36.5926 17.1541 35.0911C17.0803 33.4676 17.0655 32.98 17.0655 28.8675C17.0655 24.755 17.0803 24.2699 17.1541 22.6464C17.2227 21.1449 17.4736 20.33 17.6844 19.7872C17.9635 19.0685 18.2979 18.5551 18.8369 18.0161C19.3759 17.4771 19.8892 17.1435 20.6079 16.8637C21.1507 16.6519 21.966 16.4017 23.4675 16.3327C24.8882 16.2685 25.4387 16.2493 28.3089 16.2461V16.2499ZM37.9109 18.807C36.8907 18.807 36.0629 19.6338 36.0629 20.6544C36.0629 21.6746 36.8907 22.5024 37.9109 22.5024C38.9312 22.5024 39.7589 21.6746 39.7589 20.6544C39.7589 19.6341 38.9312 18.807 37.9109 18.807ZM29.6905 20.9662C25.323 20.9662 21.7819 24.5073 21.7819 28.8749C21.7819 33.2424 25.323 36.7819 29.6905 36.7819C34.0581 36.7819 37.5979 33.2424 37.5979 28.8749C37.5979 24.5073 34.0581 20.9662 29.6905 20.9662ZM29.6905 23.7415C32.5254 23.7415 34.8239 26.0396 34.8239 28.8749C34.8239 31.7098 32.5254 34.0082 29.6905 34.0082C26.8552 34.0082 24.5571 31.7098 24.5571 28.8749C24.5571 26.0396 26.8552 23.7415 29.6905 23.7415Z" fill="url(#paint1_linear_3468_10398)"/>
</g>
<defs>
<filter id="filter0_b_3468_10398" x="-25.4375" y="-26.25" width="110.25" height="110.25" filterUnits="userSpaceOnUse" color-interpolation-filters="sRGB">
<feFlood flood-opacity="0" result="BackgroundImageFix"/>
<feGaussianBlur in="BackgroundImageFix" stdDeviation="13.125"/>
<feComposite in2="SourceAlpha" operator="in" result="effect1_backgroundBlur_3468_10398"/>
<feBlend mode="normal" in="SourceGraphic" in2="effect1_backgroundBlur_3468_10398" result="shape"/>
</filter>
<filter id="filter1_b_3468_10398" x="-11.9609" y="-12.7753" width="83.3008" height="83.3003" filterUnits="userSpaceOnUse" color-interpolation-filters="sRGB">
<feFlood flood-opacity="0" result="BackgroundImageFix"/>
<feGaussianBlur in="BackgroundImageFix" stdDeviation="13.125"/>
<feComposite in2="SourceAlpha" operator="in" result="effect1_backgroundBlur_3468_10398"/>
<feBlend mode="normal" in="SourceGraphic" in2="effect1_backgroundBlur_3468_10398" result="shape"/>
</filter>
<linearGradient id="paint0_linear_3468_10398" x1="0.632031" y1="0.180469" x2="29.507" y2="29.0555" gradientUnits="userSpaceOnUse">
<stop stop-color="white" stop-opacity="0.5"/>
<stop offset="1" stop-color="white" stop-opacity="0.1"/>
</linearGradient>
<linearGradient id="paint1_linear_3468_10398" x1="14.1928" y1="13.571" x2="41.5754" y2="47.4085" gradientUnits="userSpaceOnUse">
<stop stop-color="#F5EDFD"/>
<stop offset="1" stop-color="#F5EDFD" stop-opacity="0.2"/>
</linearGradient>
</defs>
</svg>
