<svg width="59" height="58" viewBox="0 0 59 58" fill="none" xmlns="http://www.w3.org/2000/svg">
<g filter="url(#filter0_b_3468_10408)">
<path fill-rule="evenodd" clip-rule="evenodd" d="M0.6875 28.875C0.6875 12.9278 13.6153 0 29.5625 0C45.5097 0 58.4375 12.9278 58.4375 28.875C58.4375 44.8222 45.5097 57.75 29.5625 57.75C13.6153 57.75 0.6875 44.8222 0.6875 28.875Z" fill="#D4D4D4" fill-opacity="0.1"/>
<path d="M1.25 28.875C1.25 13.2384 13.9259 0.5625 29.5625 0.5625C45.1991 0.5625 57.875 13.2384 57.875 28.875C57.875 44.5116 45.1991 57.1875 29.5625 57.1875C13.9259 57.1875 1.25 44.5116 1.25 28.875Z" stroke="url(#paint0_linear_3468_10408)" stroke-opacity="0.5" stroke-width="1.125" stroke-linecap="round"/>
</g>
<g filter="url(#filter1_b_3468_10408)">
<path d="M21.9531 18.3479C21.9527 19.1456 21.6355 19.9105 21.0711 20.4743C20.5067 21.0381 19.7415 21.3546 18.9438 21.3542C18.1461 21.3538 17.3812 21.0365 16.8174 20.4722C16.2536 19.9078 15.9371 19.1426 15.9375 18.3449C15.9379 17.5471 16.2552 16.7823 16.8195 16.2185C17.3839 15.6547 18.1491 15.3382 18.9468 15.3386C19.7445 15.339 20.5094 15.6562 21.0732 16.2206C21.637 16.785 21.9535 17.5502 21.9531 18.3479ZM22.0434 23.5815H16.0277V42.4104H22.0434V23.5815ZM31.548 23.5815H25.5625V42.4104H31.4879V32.5297C31.4879 27.0254 38.6615 26.5141 38.6615 32.5297V42.4104H44.602V30.4844C44.602 21.2053 33.9844 21.5512 31.4879 26.108L31.548 23.5815Z" fill="url(#paint1_linear_3468_10408)"/>
</g>
<defs>
<filter id="filter0_b_3468_10408" x="-25.5625" y="-26.25" width="110.25" height="110.25" filterUnits="userSpaceOnUse" color-interpolation-filters="sRGB">
<feFlood flood-opacity="0" result="BackgroundImageFix"/>
<feGaussianBlur in="BackgroundImageFix" stdDeviation="13.125"/>
<feComposite in2="SourceAlpha" operator="in" result="effect1_backgroundBlur_3468_10408"/>
<feBlend mode="normal" in="SourceGraphic" in2="effect1_backgroundBlur_3468_10408" result="shape"/>
</filter>
<filter id="filter1_b_3468_10408" x="-10.3125" y="-10.9114" width="81.1641" height="79.5718" filterUnits="userSpaceOnUse" color-interpolation-filters="sRGB">
<feFlood flood-opacity="0" result="BackgroundImageFix"/>
<feGaussianBlur in="BackgroundImageFix" stdDeviation="13.125"/>
<feComposite in2="SourceAlpha" operator="in" result="effect1_backgroundBlur_3468_10408"/>
<feBlend mode="normal" in="SourceGraphic" in2="effect1_backgroundBlur_3468_10408" result="shape"/>
</filter>
<linearGradient id="paint0_linear_3468_10408" x1="0.507031" y1="0.180469" x2="29.382" y2="29.0555" gradientUnits="userSpaceOnUse">
<stop stop-color="white" stop-opacity="0.5"/>
<stop offset="1" stop-color="white" stop-opacity="0.1"/>
</linearGradient>
<linearGradient id="paint1_linear_3468_10408" x1="15.8479" y1="15.4232" x2="39.5936" y2="46.493" gradientUnits="userSpaceOnUse">
<stop stop-color="#F5EDFD"/>
<stop offset="1" stop-color="#F5EDFD" stop-opacity="0.2"/>
</linearGradient>
</defs>
</svg>
