<svg width="58" height="58" viewBox="0 0 58 58" fill="none" xmlns="http://www.w3.org/2000/svg">
<g filter="url(#filter0_b_3468_10405)">
<path fill-rule="evenodd" clip-rule="evenodd" d="M0.0625 28.875C0.0625 12.9278 12.9903 0 28.9375 0C44.8847 0 57.8125 12.9278 57.8125 28.875C57.8125 44.8222 44.8847 57.75 28.9375 57.75C12.9903 57.75 0.0625 44.8222 0.0625 28.875Z" fill="#D4D4D4" fill-opacity="0.1"/>
<path d="M0.625 28.875C0.625 13.2384 13.3009 0.5625 28.9375 0.5625C44.5741 0.5625 57.25 13.2384 57.25 28.875C57.25 44.5116 44.5741 57.1875 28.9375 57.1875C13.3009 57.1875 0.625 44.5116 0.625 28.875Z" stroke="url(#paint0_linear_3468_10405)" stroke-opacity="0.5" stroke-width="1.125" stroke-linecap="round"/>
</g>
<g clip-path="url(#clip0_3468_10405)">
<g filter="url(#filter1_b_3468_10405)">
<path d="M30.832 26.5859L39.9387 16H37.7805L29.8734 25.1914L23.5578 16H16.2734L25.8238 29.8992L16.2734 41H18.4316L26.782 31.2936L33.4516 41H40.7359L30.8314 26.5859H30.832ZM27.8762 30.0215L26.9084 28.6375L19.2092 17.6246H22.524L28.7371 26.5125L29.7047 27.8965L37.7814 39.4492H34.467L27.8762 30.0221V30.0215Z" fill="url(#paint1_linear_3468_10405)"/>
</g>
</g>
<defs>
<filter id="filter0_b_3468_10405" x="-26.1875" y="-26.25" width="110.25" height="110.25" filterUnits="userSpaceOnUse" color-interpolation-filters="sRGB">
<feFlood flood-opacity="0" result="BackgroundImageFix"/>
<feGaussianBlur in="BackgroundImageFix" stdDeviation="13.125"/>
<feComposite in2="SourceAlpha" operator="in" result="effect1_backgroundBlur_3468_10405"/>
<feBlend mode="normal" in="SourceGraphic" in2="effect1_backgroundBlur_3468_10405" result="shape"/>
</filter>
<filter id="filter1_b_3468_10405" x="-1.95573" y="-2.22917" width="60.9193" height="61.4583" filterUnits="userSpaceOnUse" color-interpolation-filters="sRGB">
<feFlood flood-opacity="0" result="BackgroundImageFix"/>
<feGaussianBlur in="BackgroundImageFix" stdDeviation="9.11458"/>
<feComposite in2="SourceAlpha" operator="in" result="effect1_backgroundBlur_3468_10405"/>
<feBlend mode="normal" in="SourceGraphic" in2="effect1_backgroundBlur_3468_10405" result="shape"/>
</filter>
<linearGradient id="paint0_linear_3468_10405" x1="-0.117969" y1="0.180469" x2="28.757" y2="29.0555" gradientUnits="userSpaceOnUse">
<stop stop-color="white" stop-opacity="0.5"/>
<stop offset="1" stop-color="white" stop-opacity="0.1"/>
</linearGradient>
<linearGradient id="paint1_linear_3468_10405" x1="16.197" y1="16.0781" x2="38.5188" y2="43.0691" gradientUnits="userSpaceOnUse">
<stop stop-color="#F5EDFD"/>
<stop offset="1" stop-color="#F5EDFD" stop-opacity="0.2"/>
</linearGradient>
<clipPath id="clip0_3468_10405">
<rect width="25" height="25" fill="white" transform="translate(16 16)"/>
</clipPath>
</defs>
</svg>
