<svg width="54" height="55" viewBox="0 0 54 55" fill="none" xmlns="http://www.w3.org/2000/svg">
<g clip-path="url(#clip0_570_10716)">
<path fill-rule="evenodd" clip-rule="evenodd" d="M46.1243 7.96181C41.0507 2.88165 34.3027 0.0825335 27.113 0.0799561C12.2978 0.0799561 0.240448 12.136 0.235293 26.9551C0.232715 31.6924 1.47118 36.3164 3.82311 40.3914L0.00976562 54.3199L14.2579 50.5826C18.1834 52.7245 22.6037 53.8521 27.1014 53.8535H27.113C41.9256 53.8535 53.9843 41.796 53.9894 26.977C53.992 19.795 51.1993 13.0433 46.1243 7.9631V7.96181ZM27.113 49.3145H27.104C23.096 49.3133 19.1642 48.2358 15.7336 46.2009L14.9178 45.7165L6.46243 47.9343L8.719 39.6902L8.18803 38.8449C5.95209 35.288 4.77032 31.1769 4.7729 26.9564C4.77806 14.64 14.7992 4.61885 27.1221 4.61885C33.0888 4.62143 38.6974 6.94759 42.9154 11.1708C47.1334 15.3926 49.4544 21.0064 49.4518 26.9744C49.4466 39.2921 39.4256 49.3133 27.113 49.3133V49.3145ZM39.3662 32.5843C38.6947 32.2479 35.3931 30.6241 34.777 30.3999C34.1611 30.1756 33.7139 30.0636 33.2666 30.7362C32.8195 31.409 31.5321 32.9219 31.1403 33.3691C30.7485 33.8175 30.3567 33.873 29.6852 33.5366C29.0139 33.2002 26.8501 32.4914 24.2843 30.2039C22.2881 28.4229 20.9399 26.2244 20.5483 25.5516C20.1565 24.879 20.507 24.5155 20.842 24.1817C21.1436 23.8802 21.5135 23.3969 21.8498 23.0051C22.1863 22.6133 22.2971 22.3325 22.5212 21.8852C22.7456 21.4367 22.6334 21.0451 22.4659 20.7086C22.2983 20.3723 20.9555 17.0666 20.3949 15.7225C19.8497 14.4132 19.2957 14.591 18.8845 14.5691C18.4927 14.5498 18.0456 14.5459 17.5971 14.5459C17.1486 14.5459 16.4217 14.7135 15.8057 15.3862C15.1897 16.0588 13.4551 17.6839 13.4551 20.9882C13.4551 24.2925 15.8612 27.4874 16.1975 27.9359C16.5338 28.3843 20.9335 35.1669 27.6697 38.0768C29.2717 38.7688 30.523 39.1825 31.4985 39.4919C33.1069 40.0035 34.5708 39.9313 35.7281 39.7586C37.0182 39.5653 39.7013 38.1335 40.2606 36.5651C40.8199 34.9967 40.8199 33.6513 40.6524 33.3716C40.4849 33.092 40.0364 32.9231 39.365 32.5868L39.3662 32.5843Z" fill="#25D366"/>
</g>
<defs>
<clipPath id="clip0_570_10716">
<rect width="53.9797" height="54.2796" fill="white" transform="translate(0.00976562 0.0787354)"/>
</clipPath>
</defs>
</svg>
