<svg width="181" height="151" viewBox="0 0 181 151" fill="none" xmlns="http://www.w3.org/2000/svg">
<g clip-path="url(#clip0_9006_103496)">
<path d="M159.016 9.42174H0.934792C0.868445 9.42027 0.805313 9.39288 0.758911 9.34543C0.712509 9.29799 0.686523 9.23426 0.686523 9.1679C0.686523 9.10154 0.712509 9.03781 0.758911 8.99037C0.805313 8.94292 0.868445 8.91553 0.934792 8.91406H159.016C159.082 8.91553 159.145 8.94292 159.192 8.99037C159.238 9.03781 159.264 9.10154 159.264 9.1679C159.264 9.23426 159.238 9.29799 159.192 9.34543C159.145 9.39288 159.082 9.42027 159.016 9.42174Z" fill="#86ABCE"/>
<path d="M6.52333 5.86956C8.0318 5.86956 9.25466 4.61945 9.25466 3.07736C9.25466 1.53527 8.0318 0.285156 6.52333 0.285156C5.01485 0.285156 3.79199 1.53527 3.79199 3.07736C3.79199 4.61945 5.01485 5.86956 6.52333 5.86956Z" fill="#0276E5"/>
<path d="M15.9589 5.86956C17.4673 5.86956 18.6902 4.61945 18.6902 3.07736C18.6902 1.53527 17.4673 0.285156 15.9589 0.285156C14.4504 0.285156 13.2275 1.53527 13.2275 3.07736C13.2275 4.61945 14.4504 5.86956 15.9589 5.86956Z" fill="#0276E5"/>
<path d="M25.3944 5.86956C26.9029 5.86956 28.1258 4.61945 28.1258 3.07736C28.1258 1.53527 26.9029 0.285156 25.3944 0.285156C23.8859 0.285156 22.6631 1.53527 22.6631 3.07736C22.6631 4.61945 23.8859 5.86956 25.3944 5.86956Z" fill="#0276E5"/>
<path d="M153.361 0.976562H146.659C146.526 0.9792 146.399 1.03383 146.306 1.12872C146.213 1.2236 146.161 1.35118 146.161 1.48406C146.161 1.61694 146.213 1.74452 146.306 1.83941C146.399 1.9343 146.526 1.98892 146.659 1.99156H153.361C153.494 1.98892 153.621 1.9343 153.714 1.83941C153.807 1.74452 153.859 1.61694 153.859 1.48406C153.859 1.35118 153.807 1.2236 153.714 1.12872C153.621 1.03383 153.494 0.9792 153.361 0.976562Z" fill="#0276E5"/>
<path d="M153.361 2.88281H146.659C146.526 2.88545 146.399 2.94008 146.306 3.03497C146.213 3.12985 146.161 3.25744 146.161 3.39032C146.161 3.5232 146.213 3.65078 146.306 3.74566C146.399 3.84055 146.526 3.89518 146.659 3.89782H153.361C153.494 3.89518 153.621 3.84055 153.714 3.74566C153.807 3.65078 153.859 3.5232 153.859 3.39032C153.859 3.25744 153.807 3.12985 153.714 3.03497C153.621 2.94008 153.494 2.88545 153.361 2.88281Z" fill="#0276E5"/>
<path d="M153.361 4.78516H146.659C146.526 4.78779 146.399 4.84242 146.306 4.93731C146.213 5.0322 146.161 5.15978 146.161 5.29266C146.161 5.42553 146.213 5.55312 146.306 5.648C146.399 5.74289 146.526 5.79752 146.659 5.80016H153.361C153.494 5.79752 153.621 5.74289 153.714 5.648C153.807 5.55312 153.859 5.42553 153.859 5.29266C153.859 5.15978 153.807 5.0322 153.714 4.93731C153.621 4.84242 153.494 4.78779 153.361 4.78516Z" fill="#0276E5"/>
<path d="M150.859 17.9922H6.87371C6.07644 17.9934 5.31216 18.3106 4.7484 18.8744C4.18464 19.4381 3.8674 20.2024 3.86621 20.9997V21.4847C3.8674 22.282 4.18464 23.0462 4.7484 23.61C5.31216 24.1738 6.07644 24.491 6.87371 24.4922H150.859C151.656 24.491 152.42 24.1738 152.984 23.61C153.548 23.0462 153.865 22.282 153.866 21.4847V20.9997C153.865 20.2024 153.548 19.4381 152.984 18.8744C152.42 18.3106 151.656 17.9934 150.859 17.9922Z" fill="#97CCFF"/>
<path d="M24.2501 22.4438H10.5443C10.2377 22.4433 9.94373 22.3212 9.72705 22.1042C9.51037 21.8872 9.38867 21.5931 9.38867 21.2864C9.38867 20.9798 9.51037 20.6856 9.72705 20.4686C9.94373 20.2516 10.2377 20.1295 10.5443 20.129H24.2501C25.7426 20.1082 25.7575 22.4648 24.2501 22.4438Z" fill="white"/>
<path d="M65.2501 22.4438H51.5443C51.2377 22.4433 50.9437 22.3212 50.7271 22.1042C50.5104 21.8872 50.3887 21.5931 50.3887 21.2864C50.3887 20.9798 50.5104 20.6856 50.7271 20.4686C50.9437 20.2516 51.2377 20.1295 51.5443 20.129H65.2501C66.7426 20.1082 66.7575 22.4648 65.2501 22.4438Z" fill="white"/>
<path d="M106.25 22.4438H92.5443C92.2377 22.4433 91.9437 22.3212 91.7271 22.1042C91.5104 21.8872 91.3887 21.5931 91.3887 21.2864C91.3887 20.9798 91.5104 20.6856 91.7271 20.4686C91.9437 20.2516 92.2377 20.1295 92.5443 20.129H106.25C107.743 20.1082 107.758 22.4648 106.25 22.4438Z" fill="white"/>
<path d="M145.125 22.5688H131.419C131.112 22.5688 130.818 22.4468 130.601 22.2298C130.384 22.0127 130.262 21.7184 130.262 21.4114C130.262 21.1045 130.384 20.8101 130.601 20.593C130.818 20.376 131.112 20.254 131.419 20.254H145.125C146.617 20.2332 146.632 22.5898 145.125 22.5688Z" fill="#0276E5"/>
<path d="M123.741 17.9922H123.241V24.4922H123.741V17.9922Z" fill="white"/>
<path d="M72.0023 114.197H13.2391C12.7155 114.196 12.2135 113.988 11.8433 113.618C11.473 113.247 11.2648 112.745 11.2642 112.222V103.616C11.2648 103.092 11.473 102.59 11.8433 102.22C12.2135 101.849 12.7155 101.641 13.2391 101.641H72.0023C72.5259 101.641 73.0279 101.849 73.3981 102.22C73.7684 102.59 73.9766 103.092 73.9772 103.616V112.222C73.9766 112.745 73.7684 113.247 73.3981 113.618C73.0279 113.988 72.5259 114.196 72.0023 114.197Z" fill="#97CCFF"/>
<path d="M66.2929 112.867H14.5716C14.048 112.867 13.546 112.659 13.1758 112.288C12.8056 111.918 12.5973 111.416 12.5967 110.893V104.951C12.5973 104.428 12.8056 103.926 13.1758 103.556C13.546 103.185 14.048 102.977 14.5716 102.977H70.6703C71.1939 102.977 71.6959 103.185 72.0661 103.556C72.4364 103.926 72.6446 104.428 72.6452 104.951V106.515C72.6433 108.199 71.9735 109.814 70.7826 111.005C69.5917 112.196 67.977 112.866 66.2929 112.867Z" fill="white"/>
<path d="M48.4519 107.308H24.8335C24.6985 107.308 24.5689 107.254 24.4734 107.159C24.3779 107.063 24.3242 106.933 24.3242 106.798C24.3242 106.663 24.3779 106.534 24.4734 106.438C24.5689 106.343 24.6985 106.289 24.8335 106.289H48.4519C48.587 106.289 48.7165 106.343 48.8121 106.438C48.9076 106.534 48.9612 106.663 48.9612 106.798C48.9612 106.933 48.9076 107.063 48.8121 107.159C48.7165 107.254 48.587 107.308 48.4519 107.308Z" fill="#9FC0E0"/>
<path d="M60.4081 109.39H24.8337C24.7667 109.39 24.7004 109.377 24.6384 109.351C24.5765 109.326 24.5202 109.288 24.4728 109.241C24.4254 109.194 24.3878 109.137 24.3621 109.076C24.3365 109.014 24.3232 108.947 24.3232 108.88C24.3232 108.813 24.3365 108.747 24.3621 108.685C24.3878 108.623 24.4254 108.567 24.4728 108.52C24.5202 108.473 24.5765 108.435 24.6384 108.41C24.7004 108.384 24.7667 108.371 24.8337 108.371H60.4081C60.543 108.371 60.6722 108.425 60.7675 108.521C60.8628 108.616 60.9163 108.746 60.9163 108.88C60.9163 109.015 60.8628 109.145 60.7675 109.24C60.6722 109.336 60.543 109.389 60.4081 109.39Z" fill="#9FC0E0"/>
<path d="M75.7564 91.793H8.75389C8.21925 91.7924 7.70667 91.5797 7.32862 91.2017C6.95057 90.8236 6.73791 90.311 6.7373 89.7764V38.5595C6.73792 38.0248 6.95057 37.5123 7.32863 37.1342C7.70668 36.7562 8.21925 36.5436 8.75389 36.543H75.7564C76.2911 36.5436 76.8036 36.7562 77.1817 37.1342C77.5597 37.5123 77.7724 38.0248 77.773 38.5595V89.7764C77.7724 90.311 77.5597 90.8236 77.1817 91.2017C76.8036 91.5797 76.2911 91.7924 75.7564 91.793Z" fill="white"/>
<path d="M75.7564 92.043H8.75391C8.15298 92.0423 7.57687 91.8032 7.15195 91.3783C6.72704 90.9534 6.48801 90.3773 6.4873 89.7764V38.5594C6.48801 37.9585 6.72704 37.3824 7.15196 36.9575C7.57688 36.5326 8.15299 36.2936 8.75391 36.293H75.7564C76.3573 36.2936 76.9334 36.5326 77.3583 36.9575C77.7832 37.3824 78.0222 37.9585 78.0229 38.5594V89.7764C78.0222 90.3773 77.7832 90.9534 77.3583 91.3783C76.9334 91.8032 76.3573 92.0423 75.7564 92.043ZM8.75391 36.793C8.28555 36.7935 7.83653 36.9798 7.50535 37.3109C7.17416 37.6421 6.98785 38.0911 6.9873 38.5595V89.7764C6.98783 90.2447 7.17412 90.6938 7.50531 91.025C7.8365 91.3562 8.28554 91.5425 8.75391 91.543H75.7564C76.2247 91.5425 76.6738 91.3562 77.005 91.025C77.3361 90.6938 77.5224 90.2447 77.5229 89.7764V38.5594C77.5224 38.0911 77.3361 37.6421 77.0049 37.3109C76.6737 36.9798 76.2247 36.7935 75.7564 36.793L8.75391 36.793Z" fill="#97CCFF"/>
<path d="M6.8916 82.043V89.7764C6.89234 90.27 7.08873 90.7431 7.43772 91.0921C7.78672 91.4411 8.25984 91.6375 8.7534 91.6382H75.756C76.2496 91.6375 76.7227 91.4411 77.0717 91.0921C77.4207 90.7431 77.6171 90.27 77.6178 89.7764V82.043H6.8916Z" fill="#97CCFF"/>
<path d="M7.52345 36.868L7.25391 37.2891L77.4835 82.2522L77.753 81.8312L7.52345 36.868Z" fill="#97CCFF"/>
<path d="M77.6817 36.8728L7.45215 81.8359L7.7217 82.257L77.9512 37.2938L77.6817 36.8728Z" fill="#97CCFF"/>
<path d="M137.027 147.233L133.93 147.232L132.456 135.285L137.028 135.285L137.027 147.233Z" fill="#A0616A"/>
<path d="M136.945 146.218L133.64 144.876L133.543 144.836L131.718 146.218C130.716 146.218 129.753 146.605 129.03 147.298C128.306 147.99 127.878 148.935 127.835 149.936C127.83 149.991 127.83 150.048 127.83 150.106V150.233H137.818V146.218H136.945Z" fill="#2F2E41"/>
<path d="M129.774 144.348L126.852 145.376L121.496 134.595L125.809 133.078L129.774 144.348Z" fill="#A0616A"/>
<path d="M129.36 143.422L125.796 143.253L125.691 143.248L124.428 145.157C123.484 145.49 122.704 146.174 122.251 147.067C121.799 147.961 121.709 148.995 122 149.953C122.013 150.006 122.033 150.061 122.052 150.115L122.094 150.235L131.515 146.92L130.183 143.133L129.36 143.422Z" fill="#2F2E41"/>
<path d="M138.122 95.7163C140.956 95.6064 137.445 118.189 137.445 118.189C137.445 118.189 138.472 138.015 138.255 139.056C138.037 140.096 138.227 142.902 138.227 142.902C137.672 141.892 131.944 142.654 131.944 142.654L131.165 122.56L127.187 106.46L121.671 117.252L126.957 133.818C126.957 133.818 129.098 135.799 128.871 136.581C128.643 137.364 123.035 139.13 122.005 139.17C120.974 139.21 121.44 137.902 121.39 136.613C121.34 135.325 116.491 123.387 114.785 119.325C113.08 115.264 114.406 109.536 115.276 105.374C116.147 101.212 120.727 93.4021 120.727 93.4021C126.413 86.9896 135.288 95.8262 138.122 95.7163Z" fill="#2F2E41"/>
<path d="M103.588 77.4687C103.743 77.7652 103.961 78.0242 104.227 78.2272C104.494 78.4303 104.801 78.5725 105.128 78.6439C105.455 78.7153 105.794 78.7141 106.12 78.6405C106.447 78.5668 106.753 78.4224 107.018 78.2175L113.832 82.6635L113.812 78.4354L107.344 74.8616C106.97 74.4397 106.455 74.1696 105.895 74.1024C105.335 74.0352 104.771 74.1755 104.308 74.4969C103.845 74.8182 103.516 75.2983 103.383 75.846C103.25 76.3937 103.323 76.9711 103.588 77.4687Z" fill="#A0616A"/>
<path d="M136.65 99.3398C129.623 99.3401 125.75 97.9333 123.694 96.6772C121.179 95.1413 120.749 93.5217 120.732 93.4534L120.727 93.4338L120.971 90.3538L121.078 90.114C121.572 89.0099 121.637 87.7619 121.262 86.6123L121.254 86.5886L121.256 86.564L122.899 65.2528L128.714 63.348L130.406 61.6483L137.938 61.5391L138.987 63.6666L144.925 65.902L142.008 83.2661L140.609 85.6765L141.172 88.3022L141.168 88.3259L139.334 99.2759L139.233 99.2803C138.328 99.3208 137.467 99.3407 136.65 99.3398Z" fill="#0276E5"/>
<path d="M118.47 86.0435L115.713 84.409L115.54 84.1595C115.189 83.6545 114.725 83.2388 114.184 82.9458C113.644 82.6528 113.042 82.4907 112.427 82.4725L112.395 82.4715L108.598 80.2391L110.172 75.6282L116.124 77.3868L120.274 67.0756C120.502 66.5093 120.882 66.0173 121.373 65.6544C121.864 65.2915 122.446 65.0718 123.054 65.0198C123.662 64.9678 124.273 65.0856 124.818 65.36C125.364 65.6343 125.822 66.0546 126.143 66.574C126.471 67.1169 126.642 67.7408 126.635 68.3753V75.1221L126.61 75.1556L118.47 86.0435Z" fill="#0276E5"/>
<path d="M136.902 95.3726C136.961 95.0431 137.091 94.7305 137.284 94.4569C137.477 94.1833 137.727 93.9552 138.018 93.7889C138.308 93.6225 138.632 93.5219 138.965 93.4941C139.299 93.4662 139.635 93.5119 139.949 93.6278L145.113 87.3398L146.363 91.3789L141.268 96.7308C141.038 97.2455 140.627 97.658 140.114 97.8902C139.6 98.1224 139.02 98.1582 138.481 97.9908C137.943 97.8233 137.485 97.4643 137.194 96.9818C136.903 96.4992 136.799 95.9267 136.902 95.3726Z" fill="#A0616A"/>
<path d="M144.622 94.5778L141.193 91.1483L143.376 85.8298L146.54 81.5102C143.169 79.8691 140.638 75.9814 138.805 72.7631L138.784 72.727L139.241 69.151C139.348 68.3147 139.683 67.5238 140.209 66.8653C140.667 66.2926 141.255 65.8378 141.925 65.5391C142.595 65.2403 143.326 65.1063 144.058 65.1481C144.79 65.1899 145.501 65.4064 146.133 65.7795C146.764 66.1526 147.297 66.6714 147.686 67.2925L153.834 80.9596L153.765 81.0629L148.82 89.4926L147.47 90.3678L144.622 94.5778Z" fill="#0276E5"/>
<path d="M139.58 54.368C139.354 56.0159 138.483 57.5067 137.158 58.5127C135.834 59.5188 134.164 59.958 132.516 59.7336C130.868 59.5093 129.376 58.6399 128.368 57.3164C127.361 55.9929 126.92 54.3236 127.142 52.6752L127.155 52.5861C127.415 50.9597 128.303 49.5007 129.63 48.5239C130.956 47.547 132.613 47.1306 134.243 47.3644C135.873 47.5982 137.346 48.4635 138.344 49.7736C139.343 51.0838 139.786 52.7338 139.578 54.3677L139.58 54.368Z" fill="#A0616A"/>
<path d="M137.983 57.6009C138.305 56.9462 138.636 56.2433 138.545 55.5192C138.455 54.7951 137.745 54.103 137.047 54.3182C136.63 54.4469 136.315 54.8586 135.879 54.8797C135.28 54.9087 134.936 54.2223 134.749 53.6517L133.989 51.3275C133.259 51.8965 132.412 52.2973 131.509 52.5013C130.607 52.7053 129.67 52.7075 128.766 52.5077C128.06 52.3463 127.347 52.0317 126.933 51.4377C126.519 50.8436 126.522 49.9222 127.089 49.4731C127.368 49.2528 127.739 49.1691 128.005 48.9341C128.17 48.7883 128.284 48.5933 128.329 48.3778C128.375 48.1623 128.35 47.9379 128.258 47.7377C128.166 47.5375 128.012 47.3722 127.819 47.2663C127.626 47.1604 127.404 47.1194 127.186 47.1495L129.1 46.9102L128.53 45.8787C128.746 46.0263 128.992 46.1269 129.25 46.1742C129.508 46.2215 129.773 46.2145 130.028 46.1535C130.543 46.0608 131.028 45.8487 131.531 45.7073C132.753 45.3955 134.042 45.4908 135.204 45.9787C136.367 46.4667 137.338 47.3207 137.97 48.411C138.441 48.2537 138.949 48.2432 139.426 48.381C139.903 48.5188 140.327 48.7983 140.642 49.1824C141.154 49.8328 141.294 50.7008 141.313 51.5285C141.351 53.1607 140.995 54.7778 140.276 56.2436C140.07 56.7091 139.773 57.1293 139.404 57.48C139.218 57.6539 138.997 57.785 138.755 57.8641C138.513 57.9432 138.257 57.9684 138.004 57.938" fill="#2F2E41"/>
<path d="M36.2799 51.1416C36.3823 52.6034 36.8129 54.0232 37.5397 55.2956C39.0716 57.9858 41.6985 59.9336 44.5277 61.0913C48.0625 62.5378 52.0027 62.5823 55.754 62.2598C59.2382 61.9603 62.6869 61.2659 66.1839 61.1228C68.8883 61.0362 71.5955 61.1008 74.2927 61.3162C79.5256 61.6876 84.7367 62.3768 89.9143 63.2122C91.3166 63.4357 92.7158 63.6758 94.1122 63.9325C94.2441 63.9442 94.3747 63.9684 94.502 64.005C94.5274 64.0154 94.5682 64.0072 94.5914 64.0218C94.6335 64.0484 94.4209 63.9546 94.5498 64.0611C94.7294 64.2495 94.8896 64.4557 95.0278 64.6763L96.94 67.1371C97.4884 67.8428 97.9973 68.7002 98.706 69.2564C99.2058 69.6425 99.8086 69.8719 100.439 69.9158C101.069 69.9597 101.697 69.8161 102.246 69.5031C102.819 69.1411 103.276 68.6221 103.562 68.0079C104.002 67.2012 104.527 66.4438 105.127 65.7485C107.402 63.0946 110.564 61.4622 113.209 59.2292C114.49 58.1918 115.583 56.9421 116.441 55.5346C117.173 54.261 117.628 52.8473 117.776 51.3859C118.093 48.4181 117.182 45.3915 115.65 42.8668C113.984 40.1543 111.591 37.9635 108.742 36.5434C105.541 34.9128 102 34.1186 98.4498 33.7228C94.6807 33.3026 90.8678 33.3039 87.0803 33.3463C82.8297 33.3936 78.5868 33.5806 74.3515 33.9071C70.1105 34.2353 65.8863 34.7019 61.6787 35.3069C57.6414 35.8873 53.5547 36.4923 49.6028 37.5194C46.1115 38.4268 42.6301 39.845 40.0231 42.4146C37.7051 44.6994 36.0929 47.826 36.2799 51.1416Z" fill="#0276E5"/>
<path d="M55.795 52.088C55.6224 52.0802 55.4533 52.0368 55.2983 51.9605C55.1433 51.8841 55.0058 51.7765 54.8944 51.6445C54.7831 51.5124 54.7002 51.3587 54.6512 51.193C54.6021 51.0273 54.5879 50.8533 54.6094 50.6819L54.6991 49.9757C54.7162 49.8402 54.7002 49.7026 54.6524 49.5747C54.6046 49.4468 54.5264 49.3325 54.4247 49.2414L53.8942 48.7674C53.7205 48.6123 53.5937 48.4116 53.5281 48.1881C53.4625 47.9646 53.4607 47.7272 53.523 47.5028C53.5853 47.2783 53.7092 47.0758 53.8806 46.9181C54.052 46.7604 54.2641 46.6538 54.4929 46.6103L55.1923 46.4775C55.3263 46.4521 55.4522 46.3944 55.559 46.3095C55.6659 46.2247 55.7505 46.1151 55.8055 45.9902L56.0926 45.3384C56.1865 45.1253 56.3383 44.9427 56.5306 44.8114C56.7229 44.68 56.9481 44.605 57.1808 44.5949C57.4134 44.5848 57.6443 44.64 57.8472 44.7543C58.0502 44.8685 58.2171 45.0373 58.3292 45.2414L58.6714 45.8654C58.737 45.9852 58.8308 46.0873 58.9447 46.1627C59.0586 46.2382 59.1891 46.2848 59.325 46.2986L60.033 46.3701C60.2647 46.3935 60.4853 46.4814 60.6697 46.6236C60.8541 46.7659 60.9951 46.9569 61.0766 47.1751C61.1581 47.3933 61.177 47.63 61.131 47.8583C61.085 48.0866 60.9761 48.2976 60.8164 48.4672L60.3289 48.9856C60.2353 49.0849 60.1673 49.2055 60.1307 49.337C60.0942 49.4685 60.0903 49.607 60.1192 49.7403L60.2697 50.4364C60.3189 50.664 60.3035 50.9009 60.2252 51.1201C60.1468 51.3394 60.0087 51.5324 59.8264 51.6774C59.6442 51.8223 59.425 51.9133 59.1937 51.9402C58.9624 51.967 58.7282 51.9286 58.5175 51.8293L57.8737 51.526C57.7503 51.4675 57.6145 51.44 57.478 51.4459C57.3416 51.4517 57.2086 51.4908 57.0907 51.5596L56.4755 51.9178C56.2696 52.0383 56.0334 52.0974 55.795 52.088Z" fill="white"/>
<path d="M65.8187 51.7953C65.5011 51.7806 65.2008 51.6465 64.9779 51.4199C64.8432 51.2772 64.7427 51.1058 64.684 50.9185C64.6254 50.7313 64.6101 50.5332 64.6394 50.3391L64.7217 49.6912C64.7392 49.5532 64.7229 49.413 64.6742 49.2827C64.6256 49.1525 64.5459 49.0359 64.4422 48.9433L63.9502 48.5036C63.805 48.3797 63.6894 48.225 63.6116 48.0508C63.5337 47.8766 63.4958 47.6872 63.5004 47.4965C63.5111 47.2139 63.6175 46.9433 63.8022 46.7292C63.9868 46.515 64.2387 46.3699 64.5166 46.3176L65.2078 46.1863C65.3445 46.1604 65.4728 46.1016 65.5817 46.015C65.6905 45.9284 65.7767 45.8166 65.8328 45.6893L66.0904 45.1043C66.1825 44.8823 66.334 44.69 66.5284 44.5486C66.7227 44.4072 66.9523 44.3221 67.1919 44.3028C67.4267 44.2895 67.6605 44.3431 67.866 44.4574C68.0715 44.5718 68.2404 44.7421 68.3529 44.9487L68.691 45.5654C68.758 45.6875 68.8536 45.7915 68.9697 45.8684C69.0858 45.9452 69.2188 45.9927 69.3574 46.0067L70.0135 46.073C70.2039 46.0879 70.3885 46.1451 70.5539 46.2404C70.7193 46.3357 70.8614 46.4667 70.9697 46.6239C71.1269 46.8588 71.1996 47.1402 71.1761 47.4219C71.1525 47.7035 71.0341 47.9689 70.8401 48.1745L70.3582 48.6868C70.263 48.7881 70.1938 48.9109 70.1566 49.0449C70.1194 49.1788 70.1153 49.3197 70.1446 49.4556L70.2835 50.0983C70.328 50.2838 70.3308 50.4769 70.2916 50.6636C70.2525 50.8503 70.1724 51.026 70.0571 51.1779C69.8829 51.4012 69.6377 51.5584 69.3621 51.6237C69.0866 51.6889 68.797 51.6581 68.5412 51.5366L67.904 51.2364C67.7783 51.1772 67.6401 51.1494 67.5013 51.1554C67.3625 51.1614 67.2272 51.2011 67.1072 51.271L66.4991 51.6251C66.2932 51.7456 66.0571 51.8047 65.8187 51.7953Z" fill="white"/>
<path d="M75.8683 51.752C75.6957 51.7443 75.5266 51.7008 75.3716 51.6245C75.2166 51.5482 75.0791 51.4406 74.9677 51.3085C74.8563 51.1764 74.7735 51.0227 74.7244 50.8571C74.6754 50.6914 74.6611 50.5174 74.6826 50.346L74.7723 49.6398C74.7894 49.5043 74.7734 49.3667 74.7256 49.2388C74.6778 49.1109 74.5997 48.9965 74.4979 48.9055L73.9674 48.4315C73.7937 48.2763 73.6669 48.0757 73.6013 47.8522C73.5357 47.6287 73.534 47.3913 73.5962 47.1668C73.6585 46.9424 73.7824 46.7399 73.9538 46.5821C74.1252 46.4244 74.3374 46.3178 74.5662 46.2744L75.2655 46.1416C75.3996 46.1161 75.5254 46.0585 75.6323 45.9736C75.7391 45.8887 75.8237 45.7791 75.8788 45.6543L76.1658 45.0024C76.2598 44.7894 76.4115 44.6068 76.6038 44.4754C76.7961 44.344 77.0213 44.2691 77.254 44.259C77.4867 44.2489 77.7175 44.3041 77.9205 44.4183C78.1234 44.5326 78.2904 44.7013 78.4024 44.9055L78.7446 45.5295C78.8103 45.6493 78.9041 45.7513 79.0179 45.8268C79.1318 45.9022 79.2623 45.9489 79.3983 45.9626L80.1062 46.0341C80.338 46.0576 80.5585 46.1454 80.7429 46.2877C80.9274 46.4299 81.0683 46.621 81.1498 46.8392C81.2314 47.0574 81.2502 47.294 81.2042 47.5224C81.1582 47.7507 81.0493 47.9616 80.8897 48.1313L80.4021 48.6497C80.3085 48.749 80.2405 48.8696 80.204 49.0011C80.1675 49.1326 80.1635 49.271 80.1925 49.4044L80.3429 50.1005C80.3921 50.3281 80.3767 50.5649 80.2984 50.7842C80.2201 51.0035 80.082 51.1965 79.8997 51.3414C79.7174 51.4863 79.4982 51.5774 79.2669 51.6042C79.0356 51.6311 78.8014 51.5927 78.5908 51.4934L77.9469 51.19C77.8235 51.1316 77.6877 51.1041 77.5513 51.1099C77.4148 51.1158 77.2818 51.1548 77.1639 51.2237L76.5487 51.5819C76.3428 51.7024 76.1067 51.7614 75.8683 51.752Z" fill="white"/>
<path opacity="0.2" d="M85.6437 51.4864C85.4711 51.4786 85.302 51.4352 85.147 51.3589C84.992 51.2826 84.8545 51.175 84.7431 51.0429C84.6317 50.9108 84.5489 50.7571 84.4998 50.5914C84.4508 50.4258 84.4365 50.2518 84.458 50.0803L84.5477 49.3741C84.5648 49.2387 84.5488 49.1011 84.501 48.9732C84.4532 48.8453 84.3751 48.7309 84.2733 48.6399L83.7428 48.1659C83.5691 48.0107 83.4423 47.81 83.3767 47.5865C83.3111 47.363 83.3094 47.1256 83.3716 46.9012C83.4339 46.6768 83.5578 46.4742 83.7292 46.3165C83.9006 46.1588 84.1127 46.0522 84.3416 46.0088L85.0409 45.876C85.175 45.8505 85.3008 45.7929 85.4077 45.708C85.5145 45.6231 85.5991 45.5135 85.6541 45.3887L85.9412 44.7368C86.0352 44.5237 86.1869 44.3412 86.3792 44.2098C86.5715 44.0784 86.7967 44.0034 87.0294 43.9934C87.2621 43.9833 87.4929 44.0385 87.6959 44.1527C87.8988 44.267 88.0658 44.4357 88.1778 44.6398L88.52 45.2638C88.5856 45.3837 88.6794 45.4857 88.7933 45.5612C88.9072 45.6366 89.0377 45.6832 89.1736 45.697L89.8816 45.7685C90.1133 45.792 90.3339 45.8798 90.5183 46.0221C90.7028 46.1643 90.8437 46.3554 90.9252 46.5736C91.0067 46.7917 91.0256 47.0284 90.9796 47.2567C90.9336 47.4851 90.8247 47.696 90.6651 47.8657L90.1775 48.384C90.0839 48.4834 90.0159 48.604 89.9794 48.7355C89.9428 48.867 89.9389 49.0054 89.9679 49.1388L90.1183 49.8349C90.1675 50.0625 90.1521 50.2993 90.0738 50.5186C89.9955 50.7379 89.8574 50.9309 89.6751 51.0758C89.4928 51.2207 89.2736 51.3117 89.0423 51.3386C88.811 51.3654 88.5768 51.3271 88.3661 51.2278L87.7223 50.9244C87.5989 50.8659 87.4631 50.8384 87.3266 50.8443C87.1902 50.8502 87.0572 50.8892 86.9393 50.9581L86.3241 51.3163C86.1182 51.4368 85.8821 51.4958 85.6437 51.4864Z" fill="black"/>
<path opacity="0.2" d="M95.4191 51.2247C95.2465 51.2169 95.0774 51.1735 94.9224 51.0972C94.7674 51.0208 94.6299 50.9133 94.5185 50.7812C94.4071 50.6491 94.3243 50.4954 94.2752 50.3297C94.2261 50.1641 94.2119 49.99 94.2334 49.8186L94.3231 49.1124C94.3402 48.9769 94.3242 48.8394 94.2764 48.7115C94.2286 48.5836 94.1504 48.4692 94.0487 48.3782L93.5182 47.9042C93.3445 47.749 93.2177 47.5483 93.1521 47.3248C93.0865 47.1013 93.0847 46.8639 93.147 46.6395C93.2093 46.415 93.3332 46.2125 93.5046 46.0548C93.676 45.8971 93.8881 45.7905 94.117 45.7471L94.8163 45.6142C94.9503 45.5888 95.0762 45.5311 95.183 45.4463C95.2899 45.3614 95.3745 45.2518 95.4295 45.1269L95.7166 44.4751C95.8106 44.262 95.9623 44.0795 96.1546 43.9481C96.3469 43.8167 96.5721 43.7417 96.8048 43.7316C97.0374 43.7216 97.2683 43.7768 97.4713 43.891C97.6742 44.0052 97.8411 44.174 97.9532 44.3781L98.2954 45.0021C98.361 45.1219 98.4548 45.224 98.5687 45.2994C98.6826 45.3749 98.8131 45.4215 98.949 45.4353L99.657 45.5068C99.8887 45.5303 100.109 45.6181 100.294 45.7603C100.478 45.9026 100.619 46.0936 100.701 46.3118C100.782 46.53 100.801 46.7667 100.755 46.995C100.709 47.2234 100.6 47.4343 100.44 47.6039L99.9529 48.1223C99.8593 48.2216 99.7913 48.3423 99.7548 48.4738C99.7182 48.6053 99.7143 48.7437 99.7433 48.877L99.8937 49.5731C99.9429 49.8007 99.9275 50.0376 99.8492 50.2569C99.7708 50.4762 99.6327 50.6692 99.4505 50.8141C99.2682 50.959 99.049 51.05 98.8177 51.0769C98.5864 51.1037 98.3522 51.0654 98.1415 50.9661L97.4977 50.6627C97.3743 50.6042 97.2385 50.5767 97.102 50.5826C96.9656 50.5885 96.8326 50.6275 96.7147 50.6963L96.0995 51.0546C95.8936 51.1751 95.6575 51.2341 95.4191 51.2247Z" fill="black"/>
<path d="M157.697 134.628L157.983 128.198C160.964 126.605 164.289 125.763 167.669 125.746C163.017 129.55 163.598 136.881 160.444 141.996C159.448 143.584 158.108 144.927 156.522 145.926C154.937 146.925 153.146 147.555 151.284 147.768L147.391 150.152C146.857 147.174 146.975 144.115 147.737 141.187C148.498 138.259 149.886 135.531 151.803 133.191C152.892 131.888 154.14 130.728 155.519 129.738C156.451 132.197 157.697 134.628 157.697 134.628Z" fill="#7EA7CE"/>
<path d="M180.016 150.713H75.6707C75.5918 150.713 75.5161 150.681 75.4602 150.625C75.4044 150.57 75.373 150.494 75.373 150.415C75.373 150.336 75.4044 150.26 75.4602 150.204C75.5161 150.149 75.5918 150.117 75.6707 150.117H180.016C180.095 150.117 180.171 150.149 180.227 150.204C180.283 150.26 180.314 150.336 180.314 150.415C180.314 150.494 180.283 150.57 180.227 150.625C180.171 150.681 180.095 150.713 180.016 150.713Z" fill="#86ABCE"/>
</g>
<defs>
<clipPath id="clip0_9006_103496">
<rect width="179.627" height="150.43" fill="white" transform="translate(0.686523 0.285156)"/>
</clipPath>
</defs>
</svg>
