<svg width="57" height="57" viewBox="0 0 57 57" fill="none" xmlns="http://www.w3.org/2000/svg">
<path d="M21.4687 30.5938L28.5 21.2188L35.5312 31.7656V28.25H44.9062V11.8438C44.9062 9.25859 42.8039 7.15625 40.2187 7.15625H9.75C7.16484 7.15625 5.0625 9.25859 5.0625 11.8438V39.9688C5.0625 42.5539 7.16484 44.6562 9.75 44.6562H28.5V35.2812H12.0937L19.125 25.9062L21.4687 30.5938Z" fill="url(#paint0_linear_4608_14118)" fill-opacity="0.5"/>
<path d="M44.9062 32.9375H40.2188V39.9688H33.1875V44.6562H40.2188V51.6875H44.9062V44.6562H51.9375V39.9688H44.9062V32.9375Z" fill="url(#paint1_linear_4608_14118)" fill-opacity="0.5"/>
<defs>
<linearGradient id="paint0_linear_4608_14118" x1="4.93799" y1="7.27344" x2="23.6536" y2="27.1588" gradientUnits="userSpaceOnUse">
<stop stop-color="white" stop-opacity="0.5"/>
<stop offset="1" stop-color="white" stop-opacity="0.1"/>
</linearGradient>
<linearGradient id="paint1_linear_4608_14118" x1="33.1289" y1="32.9961" x2="42.5039" y2="42.3711" gradientUnits="userSpaceOnUse">
<stop stop-color="white" stop-opacity="0.5"/>
<stop offset="1" stop-color="white" stop-opacity="0.1"/>
</linearGradient>
</defs>
</svg>
